<svg xmlns="http://www.w3.org/2000/svg" viewBox="0 0 225.91 182.97"><g id="Calque_2" data-name="Calque 2"><g id="Calque_1-2" data-name="Calque 1"><g id="zUpngm"><path d="M13.67,89c0,6.27-.08,12.54.07,18.8a6.64,6.64,0,0,0,1.51,3.8c2.7,3.21,2.79,7.55,0,10.35a7.27,7.27,0,0,1-10.28-.07c-2.82-2.84-2.68-7.15.11-10.33A6,6,0,0,0,6.47,108c.1-14,0-28,.11-42,0-1.8-.43-3-2.21-3.58a10.81,10.81,0,0,1-2.09-1.06c-3-1.81-3.07-5,0-6.69C7,52.2,11.76,49.92,16.49,47.56Q63.24,24.19,110,.8a6.12,6.12,0,0,1,6.07,0Q169.2,27.47,222.4,54c1.68.83,3.43,1.57,3.51,3.88.08,2.47-1.74,3.29-3.51,4.18Q169.2,88.63,116,115.24a6.14,6.14,0,0,1-6.07,0Q63.51,91.92,17,68.73c-.44-.22-.89-.42-1.31-.66-1.48-.87-2-.52-2,1.25C13.71,75.88,13.68,82.45,13.67,89Z"/><path d="M171.71,130.47c0,6.95-.19,13.91.06,20.86s-2.51,12.13-7.46,16.49c-6.08,5.35-13.27,8.64-21,10.79-22.32,6.24-44.51,5.94-66.4-1.94-6.69-2.4-12.82-5.88-17.66-11.26a18.66,18.66,0,0,1-5-13.08q.15-22.77,0-45.53c0-2.3.42-2.69,2.5-1.65,14.93,7.53,30,14.77,44.81,22.56,7.71,4.06,14.77,4.24,22.53.17,14.89-7.8,30-15.14,45.08-22.65,2.51-1.25,2.54-1.2,2.54,1.75Z"/></g></g></g></svg>