<svg xmlns="http://www.w3.org/2000/svg" viewBox="0 0 163.03 170.25"><g id="Calque_2" data-name="Calque 2"><g id="Calque_1-2" data-name="Calque 1"><path d="M6.4,42.58H27.05a6.4,6.4,0,0,0,0-12.79H6.4a6.4,6.4,0,1,0,0,12.79Z"/><path d="M6.4,75.21H27.05a6.4,6.4,0,0,0,0-12.79H6.4a6.4,6.4,0,1,0,0,12.79Z"/><path d="M6.4,107.84H27.05a6.4,6.4,0,0,0,0-12.8H6.4a6.4,6.4,0,0,0,0,12.8Z"/><path d="M33.44,134.07a6.4,6.4,0,0,0-6.39-6.4H6.4a6.4,6.4,0,1,0,0,12.8H27.05A6.4,6.4,0,0,0,33.44,134.07Z"/><path d="M145.12,0H34.63A17.91,17.91,0,0,0,16.72,17.91v9.74H28.5a8.54,8.54,0,0,1,0,17.07H16.72V60.28H28.5a8.54,8.54,0,0,1,0,17.07H16.72V92.91H28.5a8.53,8.53,0,0,1,0,17.06H16.72v15.57H28.5A8.53,8.53,0,0,1,37,134.07h0a8.53,8.53,0,0,1-8.53,8.53H16.72v9.75a17.9,17.9,0,0,0,17.91,17.9H145.12A17.9,17.9,0,0,0,163,152.35V17.91A17.91,17.91,0,0,0,145.12,0ZM93.51,50.07A14.83,14.83,0,1,1,78.68,64.9,14.83,14.83,0,0,1,93.51,50.07ZM62,115.14a31.49,31.49,0,0,1,63,0Z"/></g></g></svg>